<?xml version="1.0" standalone="no"?>
<!DOCTYPE svg PUBLIC "-//W3C//DTD SVG 20010904//EN"
 "http://www.w3.org/TR/2001/REC-SVG-20010904/DTD/svg10.dtd">
<svg version="1.0" xmlns="http://www.w3.org/2000/svg"
 width="1000.000000pt" height="1000.000000pt" viewBox="0 0 1000.000000 1000.000000"
 preserveAspectRatio="xMidYMid meet">
<metadata>
Created by potrace 1.14, written by Peter Selinger 2001-2017
</metadata>
<g transform="translate(0.000000,1000.000000) scale(0.100000,-0.100000)"
fill="#000000" stroke="none">
<path d="M4819 8326 c-2 -2 -31 -7 -64 -11 -229 -24 -525 -121 -730 -240 -61
-35 -191 -121 -226 -149 -14 -12 -43 -34 -65 -51 -56 -44 -215 -202 -260 -260
-21 -27 -44 -54 -51 -60 -38 -33 -240 -374 -249 -421 -1 -5 -11 -30 -23 -54
-11 -24 -21 -49 -21 -55 0 -6 -26 -19 -57 -29 -78 -25 -284 -131 -391 -203
-48 -32 -89 -60 -92 -63 -3 -3 -35 -29 -71 -57 -145 -114 -340 -341 -444 -514
-79 -134 -174 -341 -200 -439 -3 -8 -9 -33 -15 -55 -6 -22 -13 -48 -15 -57
-36 -133 -50 -266 -50 -473 0 -257 12 -358 64 -539 105 -362 264 -633 525
-891 195 -194 391 -324 644 -430 l74 -30 37 -90 c172 -422 480 -770 881 -998
192 -109 450 -195 692 -231 107 -16 398 -22 488 -11 85 12 215 35 275 50 33 9
70 18 81 20 48 11 217 76 291 113 240 118 382 219 558 396 116 116 147 152
195 221 19 28 45 63 58 79 13 17 28 39 33 50 5 12 20 39 34 61 34 55 99 188
127 259 l23 58 90 37 c93 39 206 92 239 114 11 6 45 27 75 46 31 19 58 37 61
40 3 4 19 15 35 25 139 88 354 305 477 481 100 145 232 406 264 525 2 8 13 47
24 85 11 39 23 84 25 100 3 17 10 55 16 85 20 113 24 170 24 360 0 194 -7 289
-27 365 -6 22 -11 49 -13 60 -1 11 -8 40 -15 65 -7 25 -12 46 -11 47 4 15 -85
239 -139 348 -115 235 -311 482 -515 652 -125 105 -301 212 -474 289 l-114 51
-23 59 c-13 32 -31 73 -41 89 -9 17 -16 31 -14 33 11 11 -180 323 -244 397
-101 119 -220 241 -280 288 -15 12 -42 33 -59 47 -17 14 -51 39 -76 55 -25 17
-47 33 -50 36 -20 24 -335 189 -361 189 -6 0 -23 7 -39 15 -27 14 -207 69
-260 79 -14 3 -50 9 -80 15 -30 6 -68 13 -85 17 -35 7 -459 17 -466 10z m816
-959 c11 -3 42 -8 68 -11 57 -9 68 -11 127 -25 25 -7 56 -14 69 -17 117 -25
466 -172 487 -205 5 -8 3 -10 -6 -4 -14 9 -306 10 -355 1 -16 -2 -55 -8 -85
-11 -257 -30 -581 -151 -822 -307 l-97 -63 227 -1 c125 -1 245 -4 267 -7 161
-22 343 -69 480 -124 145 -59 372 -183 429 -235 11 -10 38 -30 60 -45 22 -16
60 -46 85 -68 384 -341 624 -796 678 -1285 15 -132 9 -417 -12 -555 -13 -86
-55 -245 -93 -351 -36 -100 -147 -334 -158 -334 -3 0 -2 5 1 11 9 13 9 295 0
369 -19 170 -68 392 -105 475 -5 11 -18 47 -30 80 -32 90 -192 382 -241 439
-4 4 -5 -27 -2 -70 2 -44 5 -111 6 -151 9 -259 -67 -606 -189 -862 -45 -97
-137 -255 -161 -279 -7 -7 -13 -17 -13 -21 0 -4 -9 -19 -20 -32 -11 -13 -23
-29 -27 -34 -319 -422 -832 -712 -1363 -772 -144 -17 -444 -8 -570 16 -30 6
-69 13 -87 16 -18 3 -43 9 -57 15 -15 5 -26 8 -26 6 0 -6 -105 28 -206 67 -91
35 -294 134 -294 143 0 3 5 2 11 -1 13 -9 288 -9 354 -1 28 4 70 9 94 11 118
12 337 68 459 118 34 14 62 23 62 20 0 -3 6 -1 13 5 6 5 57 33 111 61 54 28
140 79 190 111 l91 60 -70 -6 c-90 -8 -306 -8 -370 0 -306 39 -599 135 -820
269 -37 23 -200 132 -219 147 -143 115 -324 311 -423 460 -108 161 -205 365
-257 540 -9 30 -21 69 -25 85 -8 27 -23 106 -22 120 0 2 -5 19 -10 37 -23 81
-32 399 -17 558 22 218 98 474 202 677 52 102 71 131 60 93 -7 -25 -7 -299 0
-355 2 -16 7 -55 11 -85 13 -101 46 -244 87 -365 38 -116 152 -366 170 -373 4
-2 8 -8 8 -13 0 -5 24 -45 53 -88 l52 -78 -1 218 c-1 121 2 236 6 257 5 20 11
60 15 87 3 28 11 68 17 90 6 22 12 53 15 69 13 82 117 351 175 454 10 17 27
47 37 66 166 293 445 568 741 733 123 68 149 81 250 120 190 74 349 114 515
129 39 4 72 8 74 10 5 5 370 -4 396 -9z"/>
</g>
</svg>
